<svg width="66" height="66" fill="none" xmlns="http://www.w3.org/2000/svg"><path d="M60.79 30.43 35.57 5.2a3.71 3.71 0 0 0-5.26 0l-5.23 5.24 6.64 6.64a4.42 4.42 0 0 1 5.6 5.63l6.38 6.4a4.42 4.42 0 1 1-2.65 2.5l-5.97-5.98v15.71a4.42 4.42 0 1 1-3.64-.13V25.37a4.43 4.43 0 0 1-2.4-5.8l-6.54-6.55-17.29 17.3a3.71 3.71 0 0 0 0 5.26l25.22 25.2a3.71 3.71 0 0 0 5.26 0l25.1-25.1a3.71 3.71 0 0 0 0-5.26" fill="#DD4C35"/><path d="m25.08 10.45 6.64 6.64a4.42 4.42 0 0 1 5.6 5.63l6.38 6.4a4.42 4.42 0 1 1-2.65 2.5l-5.97-5.98v15.71a4.42 4.42 0 1 1-3.64-.13V25.37a4.43 4.43 0 0 1-2.4-5.8l-6.54-6.55" fill="#C9C9C9"/></svg>