<svg width="66" height="66" fill="none" xmlns="http://www.w3.org/2000/svg"><g clip-path="url(#a)"><path fill-rule="evenodd" clip-rule="evenodd" d="m38.01 11.3 10.86 6.52a4.62 4.62 0 0 1 7.5.92 5.02 5.02 0 0 1-1.72 6.68c-.4.24-.82.41-1.26.52V39c.44.11.85.29 1.24.52a4.99 4.99 0 0 1 1.73 6.69 4.62 4.62 0 0 1-7.6.81l-10.8 6.48c.17.5.25 1.02.25 1.55 0 2.69-2.1 4.9-4.71 4.9a4.8 4.8 0 0 1-4.7-4.9c0-.48.06-.95.18-1.39l-10.85-6.52a4.61 4.61 0 0 1-7.49-.93 5.02 5.02 0 0 1 1.73-6.7c.39-.22.8-.4 1.24-.5V25.93a4.61 4.61 0 0 1-1.26-.52 5.01 5.01 0 0 1-1.72-6.69 4.62 4.62 0 0 1 7.5-.92l10.86-6.52a5.1 5.1 0 0 1-.2-1.4C28.8 7.2 30.9 5 33.5 5a4.8 4.8 0 0 1 4.7 4.9c0 .48-.06.95-.19 1.4Zm-1.13 2 10.88 6.54a5.08 5.08 0 0 0 .45 3.79 4.7 4.7 0 0 0 2.94 2.3V39l-.18.05-14.22-25.61.13-.14Zm-6.63.14-14.22 25.6a4.59 4.59 0 0 0-.18-.04V25.93a4.7 4.7 0 0 0 2.94-2.3 5.02 5.02 0 0 0 .44-3.8l10.88-6.53.14.14Zm4.56 1.16 14.22 25.6a4.85 4.85 0 0 0-1.33 2.4H19.3a5.03 5.03 0 0 0-1.33-2.39L32.2 14.6a4.55 4.55 0 0 0 2.62 0Zm2.17 37.14 10.81-6.5-.08-.32H19.29l-.05.2 10.87 6.52a4.7 4.7 0 0 1 3.39-1.5 4.54 4.54 0 0 1 3.48 1.6Z" fill="#E535AB"/></g><defs><clipPath id="a"><path fill="#fff" transform="translate(10 5)" d="M0 0h47v55H0z"/></clipPath></defs></svg>