<svg width="66" height="66" fill="none" xmlns="http://www.w3.org/2000/svg"><path d="M16.78 22.1h3.75v14.7c0 1.34-.3 2.5-.86 3.48a5.73 5.73 0 0 1-2.36 2.23 7.6 7.6 0 0 1-3.52.78 8.06 8.06 0 0 1-3.3-.66 5.39 5.39 0 0 1-2.33-1.96 5.72 5.72 0 0 1-.85-3.22h3.76c0 .56.13 1.05.37 1.46.24.4.58.72 1.01.94.43.21.92.32 1.48.32.6 0 1.12-.12 1.54-.37.42-.26.74-.64.96-1.15.22-.5.34-1.12.35-1.85V22.1ZM24.64 43V22.1h7.83c1.6 0 2.96.3 4.04.9 1.1.6 1.93 1.42 2.48 2.47.57 1.04.85 2.23.85 3.55 0 1.34-.28 2.53-.85 3.57a6.05 6.05 0 0 1-2.5 2.46c-1.1.6-2.46.89-4.07.89h-5.2v-3.11h4.7c.93 0 1.7-.17 2.3-.5.6-.32 1.04-.77 1.32-1.34.3-.57.44-1.23.44-1.97s-.14-1.4-.44-1.96c-.28-.56-.73-1-1.33-1.31a4.9 4.9 0 0 0-2.32-.48h-3.47V43h-3.78Zm18.84 0h-4.04l7.36-20.9h4.67L58.84 43H54.8l-5.58-16.61h-.17L43.48 43Zm.13-8.2h11.02v3.05H43.61V34.8Z" fill="#736F70"/></svg>