<svg xmlns="http://www.w3.org/2000/svg" width="62" height="62" viewBox="0 0 48 48"><path fill="#fff" d="M44.08 29.79c-.18-.83-.93-1.8-2.45-1.8-.3 0-.65.04-1.03.12-.71.15-1.31.22-1.85.24 4.14-7.04 6.82-16.82 4.16-20.21A13.37 13.37 0 0 0 32.21 3h-.24c-.93.01-1.9.13-2.87.34l-3.58.77a14 14 0 0 0-1.5-.11h-.2c-1.6 0-3.05.34-4.34.97l-1.25-.5A19.64 19.64 0 0 0 10.93 3a8.7 8.7 0 0 0-6.27 2.77C2.7 7.92 1.8 11.05 2 15.1c.01.2 2.46 20.9 9.4 20.9h.09c.9-.02 1.76-.38 2.56-1.08.62.46 1.4.73 2.15.84.49.12 1.36.28 2.42.28 1.28 0 2.44-.26 3.44-.74l-.02 3.42V38.87c.1 1.42.35 2.7.71 3.7 1.06 2.86 2.87 4.44 5.12 4.44l.28-.01a7.16 7.16 0 0 0 5-2.78A8.98 8.98 0 0 0 35 39.2l.01-.09v-4.17l.1.01.44.04h.08l.38.02c1.51 0 3.37-.4 4.62-.98 1.2-.55 3.94-2.08 3.46-4.24z"/><path fill="#0277bd" d="m33 34 .02-.56L33 33l.03-.02c.15-2.67.89-3.7 1.68-4.3l-.36-.47c-.33-.43-.75-.98-1.2-1.67l-.07-.16c-.07-.16-.23-.45-.44-.82-1.18-2.14-3.64-6.59-1.96-9.4.74-1.23 2.12-1.94 4.12-2.12C34 11.72 30.93 6.12 24 6h-.01c-6.04-.1-8.03 5.4-8.67 8.67a7.5 7.5 0 0 1 2.83-.6h.05c2.29.01 3.86 1.24 4.32 3.35.33 1.55.5 2.91.5 4.15a13.35 13.35 0 0 1-1.05 5.41l-.16.41c-.12.34-.25.65-.37.94-.13.3-.24.56-.32.8.48.11.86.27 1.12.38l.15.07.14.07c.85.51 1.38 1.3 1.49 2.23.06.5.05 3.9.03 6.85.09 1.29.3 2.37.6 3.15.4 1.11 1.42 3.24 3.39 3.12a5.16 5.16 0 0 0 3.56-2.02A7.02 7.02 0 0 0 33 39.02V34z"/><path fill="#0277bd" d="M15.11 28.92a7.41 7.41 0 0 1-2.1-6.06c.29-2.03.12-4.03.04-5.1L13 17v-.03c.12-3.02 1.29-7.79 4.5-10.62C15.92 5.72 13.38 4.9 11 5c-3.74.14-7.36 2.72-7 10 .14 2.73 3.22 19.1 7.44 19 .6-.01 1.23-.4 1.87-1.18 1.02-1.22 2-2.33 2.71-3.1-.31-.24-.62-.5-.9-.8zm21.91-14.19c.02.15 0 .29-.02.4.03.93-.07 1.82-.17 2.69-.07.63-.15 1.29-.17 1.95-.02.64.07 1.28.17 1.95.22 1.58.46 3.36-.77 5.44.23.3.43.57.58.84 4.61-7.48 6.47-16.36 4.7-18.63A11.41 11.41 0 0 0 32 5c-.92.01-1.76.14-2.47.3 5.07 2.45 7.33 7.73 7.5 9.43zM41 30.07c-2.67.55-3.95.26-4.57-.12l-.3.19c-.36.22-.95.58-1.1 2.78l.25.04.43.04a9.95 9.95 0 0 0 4.07-.78c2.18-1.02 3.37-2.6 1.22-2.15zm-18.98 2.05a1 1 0 0 0-.49-.73l-.1-.05c-.37-.16-.78-.34-1.43-.34l-.38.02-.16-.01c-.47.36-1.15.65-2.82.99-2.98.76-1.22 1.65-.07 1.8 1.1.27 3.73.6 5.48-.82 0-.44-.02-.75-.03-.86z"/><path fill="#0277bd" d="M20.68 18.5c-.3.3-.75.57-1.26.49-.83-.14-1.46-1.14-1.42-1.51.05-.38.75-.57 1.58-.44.29.05.55.13.77.23-.32-.69-.9-1.08-1.78-1.18-1.57-.18-3.23.64-3.56 1.1l.03.41c.1 1.15.26 3.29-.05 5.54-.2 1.48.4 3.17 1.57 4.4a4.65 4.65 0 0 0 2.5 1.43c.12-.48.32-.94.52-1.42l.35-.85.16-.43c.44-1.16.9-2.35.9-4.7.01-.91-.1-1.94-.3-3.07zM34.85 22c-.1-.72-.21-1.48-.19-2.3.03-.74.1-1.44.19-2.11.06-.54.1-1.05.13-1.55-1.29.1-2.14.47-2.55 1.1.17-.05.36-.1.57-.13.9-.11 1.54.14 1.62.64.05.36-.25.7-.39.84a1.75 1.75 0 0 1-1.17.5 1.7 1.7 0 0 1-.95-.3c.11 1.97 1.57 4.6 2.28 5.9l.37.7c.4-1.13.25-2.15.09-3.28z"/></svg>