<svg xmlns="http://www.w3.org/2000/svg" width="48" height="48"><path fill="#33d375" d="M33 8a4 4 0 0 0-8 0v11a4 4 0 0 0 8 0V8zM43 19a4 4 0 0 1-4 4h-4v-4a4 4 0 0 1 8 0z"/><path fill="#40c4ff" d="M8 14a4 4 0 0 0 0 8h11a4 4 0 0 0 0-8H8zM19 4a4 4 0 0 1 4 4v4h-4a4 4 0 0 1 0-8z"/><path fill="#e91e63" d="M14 39a4 4 0 0 0 8 0V28.03a4 4 0 0 0-8 0v10.99zM4 28.02a4 4 0 0 1 4-4h4v4a4 4 0 0 1-8 0z"/><path fill="#ffc107" d="M39 33a4 4 0 0 0 0-8H28a4 4 0 0 0 0 8h11zM28 43a4 4 0 0 1-4-4v-4h4a4 4 0 0 1 0 8z"/></svg>