<?xml version="1.0" standalone="no"?>
<!DOCTYPE svg PUBLIC "-//W3C//DTD SVG 20010904//EN"
 "http://www.w3.org/TR/2001/REC-SVG-20010904/DTD/svg10.dtd">
<svg version="1.0" xmlns="http://www.w3.org/2000/svg"
 width="80.000000pt" height="80.000000pt" viewBox="0 0 80.000000 80.000000"
 preserveAspectRatio="xMidYMid meet">

<g transform="translate(0.000000,80.000000) scale(0.100000,-0.100000)"
fill="#000000" stroke="none">
<path d="M372 397 c-29 -83 -52 -155 -52 -159 0 -5 12 -8 28 -8 26 0 29 6 80
153 29 83 52 155 52 160 0 4 -12 7 -27 7 -27 0 -30 -6 -81 -153z"/>
<path d="M175 452 c-97 -36 -100 -38 -103 -70 -2 -17 -1 -32 1 -32 2 0 54 -18
116 -40 l112 -40 -3 32 c-3 29 -8 33 -65 52 -34 12 -64 23 -67 26 -3 4 26 17
64 30 64 22 70 27 70 52 0 16 -5 28 -12 27 -7 0 -58 -17 -113 -37z"/>
<path d="M500 462 c0 -25 6 -30 70 -52 38 -13 67 -26 64 -30 -3 -3 -33 -14
-67 -26 -57 -19 -62 -23 -65 -52 l-3 -32 112 40 c62 22 114 40 116 40 2 0 3
15 1 32 -3 32 -6 34 -103 70 -55 20 -106 37 -112 37 -8 1 -13 -11 -13 -27z"/>
</g>
</svg>
