<svg width="66" height="66" fill="none" xmlns="http://www.w3.org/2000/svg"><path d="M23.28 29.42c-.02.48.04.96.17 1.42.14.4.3.78.5 1.15.06.1.1.24.1.37a.64.64 0 0 1-.3.47l-.97.67a.74.74 0 0 1-.41.15.71.71 0 0 1-.47-.23c-.2-.23-.4-.48-.56-.75-.15-.27-.3-.57-.48-.94a5.78 5.78 0 0 1-6.26 1.95c-.53-.2-1.02-.5-1.44-.9A4.11 4.11 0 0 1 12 29.73a4.2 4.2 0 0 1 1.42-3.28 5.58 5.58 0 0 1 3.82-1.25c.56 0 1.1.05 1.66.13.57.08 1.16.2 1.79.35V24.5c0-1.21-.25-2.06-.73-2.55-.5-.5-1.35-.74-2.55-.74-.56 0-1.13.07-1.68.21-.57.14-1.13.32-1.68.54a4.43 4.43 0 0 1-.8.26c-.21 0-.32-.16-.32-.5v-.78c-.02-.2.02-.39.1-.56.13-.15.28-.26.44-.33a8.83 8.83 0 0 1 1.96-.73c.8-.2 1.61-.3 2.43-.3 1.86 0 3.22.43 4.1 1.3.85.86 1.29 2.16 1.29 3.92v5.17h.03Zm-6.33 2.43c.54 0 1.09-.1 1.6-.29.57-.2 1.09-.55 1.48-1.02.25-.3.44-.64.53-1.02.11-.46.16-.92.16-1.39v-.67a12.74 12.74 0 0 0-2.9-.37 3.53 3.53 0 0 0-2.32.64 2.22 2.22 0 0 0-.77 1.84 2.1 2.1 0 0 0 .58 1.68 2 2 0 0 0 1.64.6Zm12.52 1.72a.86.86 0 0 1-.6-.16 1.31 1.31 0 0 1-.32-.62l-3.67-12.34c-.07-.2-.12-.42-.14-.63a.36.36 0 0 1 .09-.3.34.34 0 0 1 .28-.1h1.53c.21-.03.43.03.6.16.16.17.27.39.32.62l2.61 10.56L32.6 20.2c.04-.24.15-.46.31-.63.19-.11.4-.17.62-.15h1.25c.22-.03.44.03.63.15.16.17.26.4.3.63l2.46 10.69 2.7-10.7c.04-.23.15-.44.3-.62a1 1 0 0 1 .61-.16h1.45a.34.34 0 0 1 .3.1.36.36 0 0 1 .1.3l-.04.26a2.3 2.3 0 0 1-.1.4L39.71 32.8c-.04.23-.16.45-.32.62a.98.98 0 0 1-.6.16h-1.34a.92.92 0 0 1-.62-.16c-.16-.18-.27-.4-.3-.64l-2.41-10.3-2.4 10.28c-.04.24-.15.46-.3.64a.95.95 0 0 1-.63.16h-1.33ZM49.5 34a10.09 10.09 0 0 1-4.19-.93c-.2-.1-.37-.25-.48-.44-.06-.14-.1-.3-.1-.45v-.8c0-.34.13-.5.36-.5.1 0 .2.01.28.04l.4.16a8.34 8.34 0 0 0 3.56.75c.8.05 1.58-.13 2.27-.52a1.7 1.7 0 0 0 .81-1.52 1.59 1.59 0 0 0-.42-1.12c-.45-.4-1-.68-1.57-.82l-2.26-.73a4.75 4.75 0 0 1-2.5-1.62 3.86 3.86 0 0 1 .77-5.4 4.9 4.9 0 0 1 1.62-.83 7.67 7.67 0 0 1 3.01-.2c.36.04.69.1 1.01.17.31.08.61.16.9.26.22.07.44.16.65.28.18.1.34.23.46.4.1.16.15.34.14.53v.75c0 .33-.12.5-.36.5a1.6 1.6 0 0 1-.59-.18 7 7 0 0 0-3-.62 3.95 3.95 0 0 0-2.07.44 1.53 1.53 0 0 0-.73 1.43 1.54 1.54 0 0 0 .47 1.13c.5.4 1.09.7 1.71.88l2.22.71c.94.25 1.78.78 2.41 1.53.48.64.73 1.43.72 2.23 0 .64-.13 1.28-.4 1.85a4.27 4.27 0 0 1-1.14 1.4c-.52.42-1.1.72-1.74.9-.72.23-1.47.35-2.23.34" fill="#4E4E4E"/><path d="M52.5 41.5C47.34 45.1 39.88 47 33.44 47a35.6 35.6 0 0 1-23.24-8.38c-.49-.41-.05-.97.53-.65A49 49 0 0 0 34 43.81c6.1-.03 12.12-1.2 17.74-3.43.86-.37 1.6.53.75 1.12Zm2.13-2.3c-.65-.8-4.34-.38-6.01-.2-.5.07-.58-.35-.13-.66 2.94-1.94 7.77-1.38 8.33-.73.56.66-.15 5.23-2.9 7.41-.43.34-.83.17-.65-.28.63-1.46 2.02-4.75 1.36-5.54" fill="#F90"/></svg>