<svg width="66" height="66" fill="none" xmlns="http://www.w3.org/2000/svg"><path d="M33 4.67A28.33 28.33 0 0 0 4.67 33a28.41 28.41 0 0 0 19.38 26.92c1.41.22 1.87-.66 1.87-1.42v-4.79c-7.85 1.7-9.52-3.8-9.52-3.8-1.3-3.28-3.15-4.16-3.15-4.16-2.58-1.76.2-1.7.2-1.7 2.83.2 4.33 2.92 4.33 2.92 2.47 4.3 6.63 3.03 8.25 2.35.25-1.84 1-3.09 1.78-3.8-6.29-.7-12.89-3.14-12.89-13.94 0-3.14 1.08-5.66 2.92-7.67-.28-.71-1.27-3.66.28-7.48 0 0 2.38-.77 7.8 2.89a26.7 26.7 0 0 1 7.08-.94c2.4 0 4.84.31 7.08.94 5.41-3.66 7.8-2.9 7.8-2.9 1.55 3.83.56 6.78.28 7.48a10.97 10.97 0 0 1 2.92 7.68c0 10.83-6.63 13.2-12.95 13.91 1.02.88 1.95 2.61 1.95 5.25v7.76c0 .77.46 1.67 1.9 1.42a28.41 28.41 0 0 0 17.2-37.76A28.33 28.33 0 0 0 33 4.66Z" fill="#595959"/></svg>