<svg width="66" height="66" fill="none" xmlns="http://www.w3.org/2000/svg"><path d="M60.4 13.14a9.56 9.56 0 0 0-13.3-.22.9.9 0 0 0-.29.65.92.92 0 0 0 .27.66l1.2 1.2a.91.91 0 0 0 1.2.1 5.43 5.43 0 0 1 6.33-.18 5.49 5.49 0 0 1 .83 8.44c-7.57 7.62-17.75-13.68-40.76-2.72a3.12 3.12 0 0 0-1.39 4.39l3.94 6.82a3.13 3.13 0 0 0 4.23 1.17l.1-.06-.07.06 1.75-.98c1.95-1.21 3.8-2.58 5.51-4.1a.96.96 0 0 1 1.48.23.9.9 0 0 1-.22 1.12 41.77 41.77 0 0 1-5.77 4.35l-.06.04-1.75.97a5.01 5.01 0 0 1-6.76-1.87l-3.74-6.44C5.96 31.83 1.6 41.58 3.95 53.92a.91.91 0 0 0 .9.74h4.24a.9.9 0 0 0 .94-.8 6.23 6.23 0 0 1 12.36 0 .9.9 0 0 0 .88.8h4.14a.92.92 0 0 0 .91-.8 6.22 6.22 0 0 1 12.35 0 .9.9 0 0 0 .9.8h4.1a.9.9 0 0 0 .9-.89c.1-5.77 1.66-12.4 6.1-15.72C68 26.56 63.96 16.71 60.4 13.14ZM44.74 30.52l-2.93-1.47a1.84 1.84 0 1 1 2.93 1.48v-.01Z" fill="#02303A"/></svg>