<svg width="66" height="66" fill="none" xmlns="http://www.w3.org/2000/svg"><g clip-path="url(#a)"><path d="M60.91 28.84a21.42 21.42 0 0 0-2.18-7.7 23.32 23.32 0 0 0-4.53-6.19c.86-3.4-1.04-6.35-1.04-6.35a9.44 9.44 0 0 0-6.11 1.58c-.14-.05-.26-.12-.39-.17a23.13 23.13 0 0 0-3.54-1.12 23.2 23.2 0 0 0-1.87-.37l-.34-.05C39.49 3.9 35.39 2 35.39 2c-4.57 2.9-5.43 6.95-5.43 6.95l-.05.24-.75.22a26.76 26.76 0 0 0-4.12 1.8c-.66.36-1.3.76-1.92 1.18l-.17-.07c-6.33-2.41-11.95.49-11.95.49-.52 6.73 2.53 10.97 3.14 11.74l-.42 1.26a29.04 29.04 0 0 0-1.13 5.41C6.73 34.12 5 40.04 5 40.04 9.88 45.65 15.58 46 15.58 46l.02-.02a25.74 25.74 0 0 0 3.73 5.07c-1.77 5.09.26 9.31.26 9.31 5.43.2 9-2.38 9.75-2.96a24.01 24.01 0 0 0 8.01 1.26h.61l.27-.02v.01c2.56 3.66 7.06 4.17 7.06 4.17 3.2-3.36 3.38-6.71 3.38-7.43v-.3a20.56 20.56 0 0 0 5.25-5.43l.25-.4A9.02 9.02 0 0 0 60.36 47c-.6-3.77-2.75-5.62-3.2-5.97l-.06-.03c-.03-.02-.03-.04-.03-.04a.37.37 0 0 0-.08-.05l.05-.68c.03-.4.03-.82.03-1.23v-.63l-.02-.25-.01-.34c0-.12-.02-.22-.04-.32-.01-.1-.01-.22-.03-.32l-.03-.31-.05-.32a16.09 16.09 0 0 0-2.08-5.8 15.39 15.39 0 0 0-3.07-3.65 15.44 15.44 0 0 0-8.15-3.7c-.72-.1-1.44-.14-2.16-.12h-.54l-.27.01-.28.02a11.94 11.94 0 0 0-8.15 4.27 11.55 11.55 0 0 0-2.72 6.8l-.01.88v.22l.02.23.03.42a9.15 9.15 0 0 0 3.92 6.68 9.04 9.04 0 0 0 4.95 1.53h.43c.05 0 .1 0 .16-.02l.25-.01c.01 0 .05 0 .06-.02l.09-.02.15-.01.28-.05.27-.07c.19-.04.35-.1.52-.15.34-.12.67-.25.96-.4.3-.16.57-.34.84-.5.06-.06.15-.1.21-.18a.64.64 0 0 0 .1-.88.62.62 0 0 0-.78-.15l-.2.1a5.45 5.45 0 0 1-1.51.5l-.42.05-.22.02h-.4c-.09 0-.17 0-.26-.02h-.1c-.03 0-.08 0-.11-.02l-.24-.03a6.51 6.51 0 0 1-3.52-1.64 6.42 6.42 0 0 1-2.11-4.86l.02-.3v-.14l.01-.15.09-.6a8.06 8.06 0 0 1 4.47-5.85 7.83 7.83 0 0 1 2.55-.69c.22-.01.44-.03.67-.03h.52l.19.02a10.07 10.07 0 0 1 8.2 5.45c.45.88.76 1.84.92 2.82l.08.76.02.18.01.19v.72l-.01.43c-.02.27-.05.56-.09.82a10.79 10.79 0 0 1-.32 1.6 13.64 13.64 0 0 1-2.08 4.42 12.96 12.96 0 0 1-5.06 4.14 12.23 12.23 0 0 1-4.8 1.12h-.83a17.53 17.53 0 0 1-7.61-1.98 17.18 17.18 0 0 1-8.48-10.55c-.3-1.1-.5-2.23-.57-3.37l-.02-.22v-1.49a20.07 20.07 0 0 1 .84-5.14c.31-1.11.7-2.2 1.19-3.24a18.2 18.2 0 0 1 4.84-6.37 17.11 17.11 0 0 1 3.27-2l.7-.3c.47-.2.96-.38 1.46-.53.12-.03.26-.06.37-.11l.37-.1c.25-.07.5-.14.76-.19l.38-.08.39-.09c.13-.01.25-.05.38-.06l.19-.04.2-.03.38-.05.44-.05.44-.05.26-.04.19-.01.08-.02h.1l.44-.03.22-.02h.16l.37-.02h1.48a19.8 19.8 0 0 1 8.05 2.05c1.59.77 3 1.72 4.24 2.76l.23.2.22.2c.15.14.28.27.44.4l.41.41.4.42a21.83 21.83 0 0 1 3.58 5l.1.21.1.2c.07.13.13.27.18.4l.19.39.17.38c.2.5.4 1 .55 1.44.25.74.43 1.4.59 1.97a.45.45 0 0 0 .5.35.46.46 0 0 0 .43-.47c.02-.6 0-1.33-.08-2.15Z" fill="url(#b)"/></g><defs><linearGradient id="b" x1="2804.72" y1="7450.01" x2="2804.72" y2="1896.03" gradientUnits="userSpaceOnUse"><stop stop-color="#FFF100"/><stop offset="1" stop-color="#F05A28"/></linearGradient><clipPath id="a"><path fill="#fff" transform="translate(5 2)" d="M0 0h56v61H0z"/></clipPath></defs></svg>
