<svg xmlns="http://www.w3.org/2000/svg" width="62" height="62" viewBox="0 0 48 48"><path fill="#F44336" d="M23.65 24.9c-1-1.61-1.72-2.94-2.73-5.46-1.7-4.24 10.32-8.07 5.45-15.44 2.11 5.09-7.58 8.23-8.48 12.47-.82 3.9 5.75 8.43 5.76 8.43z"/><path fill="#F44336" d="M23.88 17.27c-.2 2.52 2.23 3.86 2.3 5.7.05 1.5-1.45 2.74-1.45 2.74s2.73-.54 3.58-2.82c.94-2.53-1.83-4.27-1.55-6.3.27-1.94 6.03-5.54 6.03-5.54s-8.48.56-8.91 6.22z"/><g fill="#1565C0"><path d="M32.08 25.05c1.76-.39 3.24.73 3.24 2.01 0 2.9-4.02 5.65-4.02 5.65s6.22-.74 6.22-5.5c0-3.16-3.06-3.94-5.44-2.16zm-2.95 2.34s1.94-1.38 2.46-1.9c-4.77 1.01-15.64 1.15-15.64.27 0-.8 3.5-1.64 3.5-1.64s-7.77-.1-7.77 2.18c0 2.4 10.18 2.57 17.45 1.1z"/><path d="M27.93 29.57c-4.5 1.5-12.8 1.02-10.35-1-1.2 0-2.97.97-2.97 1.9 0 1.85 8.98 3.29 15.63.57l-2.3-1.47z"/><path d="M18.69 32.74c-1.64 0-2.7 1.05-2.7 1.82 0 2.4 9.76 2.63 13.63.2l-2.46-1.63c-2.89 1.27-10.15 1.45-8.47-.4z"/><path d="M36.28 36.63c0-.93-1.05-1.38-1.43-1.59 2.23 5.38-22.32 4.96-22.32 1.79 0-.72 1.8-1.43 3.48-1.1l-1.42-.83c-3.33-.53-5.59.94-5.59 2.12 0 5.5 27.28 5.23 27.28-.39z"/><path d="M39 38.6c-4.15 4.1-14.66 5.6-25.23 3.06 10.57 4.5 25.18 1.97 25.23-3.06z"/></g></svg>