<svg width="66" height="66" fill="none" xmlns="http://www.w3.org/2000/svg"><path d="M12.33 5.22a19.67 19.67 0 0 0-.83 5.48l2.94 1.43a36.98 36.98 0 0 1 .23-5.44l-.02.2a32.88 32.88 0 0 0 0 5.17A57.32 57.32 0 0 0 19 7.93a6.27 6.27 0 0 0-3.28-3.5s-2.6-1.06-3.4.8Z" fill="url(#a)"/><path d="M22.53 27.83Z" fill="#BE202E"/><path opacity=".35" d="M22.53 27.83Z" fill="#BE202E"/><path d="m21.45 25.48.07-.06.26-.28c-.1.12-.22.22-.33.34Z" fill="#BE202E"/><path opacity=".35" d="m21.45 25.48.07-.06.26-.28c-.1.12-.22.22-.33.34Z" fill="#BE202E"/><path d="M15.22 20.81c-.14-.97-.26-1.94-.37-2.88a60.7 60.7 0 0 1-.27-2.9v-.17a46.7 46.7 0 0 1-.14-2.74l-2.94-1.41-.03.55a66.41 66.41 0 0 0-.04 5.02 102.63 102.63 0 0 0 .27 5.22v.1l3.93 1.98-.4-2.77Z" fill="url(#b)"/><path d="M21.04 44.06c.2.73.43 1.49.67 2.26v.03l.1.32.64 2.03c.79-.05 1.57.14 2.25.54a3.22 3.22 0 0 0-2.14-1.17 6.9 6.9 0 0 0 3.77-6.14 8.96 8.96 0 0 0-.1-.67 2.78 2.78 0 0 1-1.58 2.38 7.77 7.77 0 0 0 1.26-4.9c-.03-.4-.09-.82-.16-1.27a6.3 6.3 0 0 1-3.65 5.08l-1.2 1.1.14.4Z" fill="url(#c)"/><path d="m19.5 40.7-.76-2.83a244.25 244.25 0 0 1-2-8.49l-.58-2.87-.19-1.03-.31-1.78-.02-.1-3.91-2 .01.2c.08.88.16 1.78.26 2.68a97.61 97.61 0 0 0 .73 5.11l.08.47a56.65 56.65 0 0 0 1.83 7.22 37.82 37.82 0 0 0 1.7 4.28l3.95 2-.62-2.22-.17-.64Z" fill="url(#d)"/><path d="M16.4 41.68a30.64 30.64 0 0 0 1.8 3.35l.08.12c-.98-.27-2-.35-3.02-.24 1.84.51 3.51 1.49 4.86 2.83a5.1 5.1 0 0 1-2.3 1.15c.85.14 1.71.06 2.52-.22a6.19 6.19 0 0 0-1.53 2.98 6.36 6.36 0 0 1 2.49-2.63c1.3 4.25 2.7 8.48 4.19 12.67a1.19 1.19 0 0 0 .19-1.12c-1.56-4.4-3-8.86-4.32-13.34l-.19-.62-.05-.17-.67-2.34-.15-.54-3.95-2c0 .04.02.08.04.12Z" fill="url(#e)"/><path d="m16.1 23.67.07.38.22 1.19.26 1.33.14.7.46 2.16c.2.9.4 1.84.64 2.81.2.92.45 1.88.7 2.86l.73 2.87.73 2.68c0 .04.03.09.04.13a298.58 298.58 0 0 0 .82 2.85l1.19-1.1c-.03 0-.06.03-.1.05a11.44 11.44 0 0 0 2.9-6.42c.14-1.2.12-2.4-.03-3.59a24.58 24.58 0 0 0-.57-3.06 39.9 39.9 0 0 0-.88-3c-.24.47-.55.91-.9 1.3l-.21.24-.22.22a6.97 6.97 0 0 0 .85-5.17 6.55 6.55 0 0 1-1.44 2.32l-.07.07a7.26 7.26 0 0 0 .85-2.03l.1-.54c0-.12.03-.23.04-.35.02-.29.02-.57 0-.86 0-.1 0-.18-.03-.26l-.06-.38a20.7 20.7 0 0 0-.47-2.01l-.06-.2c-.06-.2-.11-.37-.17-.51a5.06 5.06 0 0 0-.22-.5A7.73 7.73 0 0 1 19.98 20l1.1-1-1.1 1a.04.04 0 0 0-.02.02l-.16.18.02-.04-3.75 3.44c.03.02.03.04.03.06Z" fill="url(#f)"/><path d="M14.64 12.06a89.82 89.82 0 0 0 .56 5.83c.12.91.25 1.86.42 2.9.13.88.3 1.82.46 2.81l3.76-3.44c.64-1.01.96-2.2.94-3.4a29.54 29.54 0 0 0-.93-6.53A14.06 14.06 0 0 0 19 7.96a59.38 59.38 0 0 1-4.37 4.1Z" fill="url(#g)"/><path d="m22.33 28.05-.22.22.22-.22Z" fill="#BE202E"/><path opacity=".35" d="m22.33 28.05-.22.22.22-.22Z" fill="#BE202E"/><path d="m22.33 28.05-.22.22.22-.22Z" fill="url(#h)"/><path d="m21.45 25.49.07-.07-.07.07Z" fill="#BE202E"/><path opacity=".35" d="m21.45 25.49.07-.07-.07.07Z" fill="#BE202E"/><path d="m21.45 25.49.07-.07-.07.07Z" fill="url(#i)"/><path d="M50.8 5.96a22.25 22.25 0 0 0-5.01 3.76l1.24 3.49c1.34-1.46 2.79-2.81 4.33-4.06l.17-.13-.17.13a37.2 37.2 0 0 0-4.13 4.16c2.26.16 4.52.21 6.78.14a7.1 7.1 0 0 0 .15-5.44S52.9 5.1 50.79 5.96Z" fill="url(#j)"/><path d="m41.04 32.27-.69.01h.36l.33-.01Z" fill="#BE202E"/><path opacity=".35" d="m41.04 32.27-.69.01h.36l.33-.01Z" fill="#BE202E"/><path d="M42.04 29.52h.1l.44-.01h-.54v.01Z" fill="#BE202E"/><path opacity=".35" d="M42.04 29.52h.1l.44-.01h-.54v.01Z" fill="#BE202E"/><path d="M40.74 20.81c.66-.9 1.33-1.77 2-2.62a73.9 73.9 0 0 1 4.27-5l-1.24-3.47-.46.42a72.43 72.43 0 0 0-4.02 4 116.76 116.76 0 0 0-3.93 4.42l-.07.09 1.58 4.72 1.87-2.56Z" fill="url(#k)"/><path d="m26.94 44.14-1.25 2.35-.01.03-.18.34L24.4 49a4.5 4.5 0 0 1 1.39 2.23c.09-.95-.2-1.9-.8-2.65 3.21.62 6.13.21 7.91-1.94.16-.2.31-.4.46-.62a3.14 3.14 0 0 1-3.16.65 8.79 8.79 0 0 0 4.9-2.95c.29-.34.58-.72.89-1.15A7.13 7.13 0 0 1 29 43.76l-1.83-.07-.24.45Z" fill="url(#l)"/><path d="m28.38 40.22 1.65-2.89c.53-.93 1.08-1.86 1.65-2.79l1.7-2.8c.57-.93 1.18-1.9 1.79-2.84.6-.94 1.2-1.85 1.81-2.77l.67-.99 1.16-1.68c.02-.03.05-.06.06-.1l-1.56-4.7-.14.16a95.02 95.02 0 0 0-5.4 7.06l-.3.45a60.5 60.5 0 0 0-4.28 7.26l-.66 1.42c-.51 1.12-.96 2.24-1.37 3.37l1.6 4.74c.4-.75.83-1.5 1.25-2.26l.37-.64Z" fill="url(#m)"/><path d="M25.1 38.54a34.67 34.67 0 0 0-1.2 4.15c0 .04-.03.1-.04.14a9.01 9.01 0 0 0-2.23-2.58 12.53 12.53 0 0 1 1.66 6.13 5.76 5.76 0 0 1-2.77-.9 5.74 5.74 0 0 0 2.2 1.83 7.01 7.01 0 0 0-3.6 1.18 7.2 7.2 0 0 1 4.1-.14c-2.18 4.1-4.41 8.67-6.69 13.52a1.35 1.35 0 0 0 1.03-.75c.41-.87 3.12-6.65 7.12-14.17.12-.2.24-.42.35-.65l.1-.18 1.3-2.4.32-.57v-.01l-1.59-4.74a.83.83 0 0 0-.06.14Z" fill="url(#n)"/><path d="m39.17 23.8-.24.37-.76 1.14-.86 1.28-.44.66-1.35 2.1a225.8 225.8 0 0 0-3.43 5.63l-1.68 2.89-1.55 2.74-.07.14a286.11 286.11 0 0 0-1.61 2.95l1.83.06-.11-.03a12.94 12.94 0 0 0 7.44-2.87c1.05-.86 2-1.83 2.82-2.91.72-.93 1.38-1.9 1.97-2.92.56-.95 1.13-1.99 1.68-3.12-.57.2-1.17.3-1.77.34l-.35.02h-.36c2-.5 3.72-1.75 4.8-3.49a7.4 7.4 0 0 1-2.57.71c-.14.02-.3.02-.44.02h-.11a8.2 8.2 0 0 0 2.3-.95c.17-.11.34-.23.5-.36l.32-.25c.24-.21.47-.44.67-.69.07-.08.14-.15.2-.24l.24-.35c.45-.64.86-1.3 1.23-1.99l.11-.2c.1-.21.2-.39.26-.55.09-.19.16-.38.22-.57-.08.05-.16.09-.25.12a8.75 8.75 0 0 1-2.86.47l-5.76-.2c.01.03 0 .05-.02.06Z" fill="url(#o)"/><path d="M47.23 13.3a86.4 86.4 0 0 0-4.19 5.16c-.61.82-1.27 1.7-1.96 2.66-.6.82-1.21 1.7-1.86 2.64l5.76.2c1.32-.3 2.52-1 3.45-1.98a33.4 33.4 0 0 0 4.42-6 15.92 15.92 0 0 0 1.14-2.5c-2.25.05-4.5 0-6.76-.17Z" fill="url(#p)"/><path d="M40.71 32.29h-.36.36Z" fill="#BE202E"/><path opacity=".35" d="M40.71 32.29h-.36.36Z" fill="#BE202E"/><path d="M40.71 32.29h-.36.36Z" fill="url(#q)"/><defs><linearGradient id="a" x1="11.2" y1="4.72" x2="18.38" y2="-4.39" gradientUnits="userSpaceOnUse"><stop stop-color="#F69923"/><stop offset=".31" stop-color="#F79A23"/><stop offset=".84" stop-color="#E97826"/></linearGradient><linearGradient id="b" x1="21.08" y1="59.68" x2="10.61" y2="6.89" gradientUnits="userSpaceOnUse"><stop offset=".32" stop-color="#9E2064"/><stop offset=".63" stop-color="#C92037"/><stop offset=".75" stop-color="#CD2335"/><stop offset="1" stop-color="#E97826"/></linearGradient><linearGradient id="c" x1="25.12" y1="52.26" x2="18.88" y2="20.8" gradientUnits="userSpaceOnUse"><stop stop-color="#282662"/><stop offset=".1" stop-color="#662E8D"/><stop offset=".79" stop-color="#9F2064"/><stop offset=".95" stop-color="#CD2032"/></linearGradient><linearGradient id="d" x1="20" y1="56.81" x2="9.54" y2="4.02" gradientUnits="userSpaceOnUse"><stop offset=".32" stop-color="#9E2064"/><stop offset=".63" stop-color="#C92037"/><stop offset=".75" stop-color="#CD2335"/><stop offset="1" stop-color="#E97826"/></linearGradient><linearGradient id="e" x1="19.96" y1="52.82" x2="14.46" y2="25.07" gradientUnits="userSpaceOnUse"><stop stop-color="#282662"/><stop offset=".1" stop-color="#662E8D"/><stop offset=".79" stop-color="#9F2064"/><stop offset=".95" stop-color="#CD2032"/></linearGradient><linearGradient id="f" x1="25.47" y1="55.73" x2="15" y2="2.94" gradientUnits="userSpaceOnUse"><stop offset=".32" stop-color="#9E2064"/><stop offset=".63" stop-color="#C92037"/><stop offset=".75" stop-color="#CD2335"/><stop offset="1" stop-color="#E97826"/></linearGradient><linearGradient id="g" x1="25.85" y1="59.06" x2="15.38" y2="6.26" gradientUnits="userSpaceOnUse"><stop offset=".32" stop-color="#9E2064"/><stop offset=".63" stop-color="#C92037"/><stop offset=".75" stop-color="#CD2335"/><stop offset="1" stop-color="#E97826"/></linearGradient><linearGradient id="h" x1="27.1" y1="55.4" x2="16.64" y2="2.61" gradientUnits="userSpaceOnUse"><stop offset=".32" stop-color="#9E2064"/><stop offset=".63" stop-color="#C92037"/><stop offset=".75" stop-color="#CD2335"/><stop offset="1" stop-color="#E97826"/></linearGradient><linearGradient id="i" x1="26.91" y1="55.44" x2="16.44" y2="2.65" gradientUnits="userSpaceOnUse"><stop offset=".32" stop-color="#9E2064"/><stop offset=".63" stop-color="#C92037"/><stop offset=".75" stop-color="#CD2335"/><stop offset="1" stop-color="#E97826"/></linearGradient><linearGradient id="j" x1="42.98" y1="8.22" x2="56.05" y2="6.59" gradientUnits="userSpaceOnUse"><stop stop-color="#F69923"/><stop offset=".31" stop-color="#F79A23"/><stop offset=".84" stop-color="#E97826"/></linearGradient><linearGradient id="k" x1="7.1" y1="60.47" x2="40.78" y2="9.5" gradientUnits="userSpaceOnUse"><stop offset=".32" stop-color="#9E2064"/><stop offset=".63" stop-color="#C92037"/><stop offset=".75" stop-color="#CD2335"/><stop offset="1" stop-color="#E97826"/></linearGradient><linearGradient id="l" x1="16.29" y1="57.7" x2="36.35" y2="27.32" gradientUnits="userSpaceOnUse"><stop stop-color="#282662"/><stop offset=".1" stop-color="#662E8D"/><stop offset=".79" stop-color="#9F2064"/><stop offset=".95" stop-color="#CD2032"/></linearGradient><linearGradient id="m" x1="8.52" y1="57.29" x2="42.2" y2="6.32" gradientUnits="userSpaceOnUse"><stop offset=".32" stop-color="#9E2064"/><stop offset=".63" stop-color="#C92037"/><stop offset=".75" stop-color="#CD2335"/><stop offset="1" stop-color="#E97826"/></linearGradient><linearGradient id="n" x1="11.67" y1="54.04" x2="29.37" y2="27.25" gradientUnits="userSpaceOnUse"><stop stop-color="#282662"/><stop offset=".1" stop-color="#662E8D"/><stop offset=".79" stop-color="#9F2064"/><stop offset=".95" stop-color="#CD2032"/></linearGradient><linearGradient id="o" x1="13.79" y1="60.78" x2="47.47" y2="9.81" gradientUnits="userSpaceOnUse"><stop offset=".32" stop-color="#9E2064"/><stop offset=".63" stop-color="#C92037"/><stop offset=".75" stop-color="#CD2335"/><stop offset="1" stop-color="#E97826"/></linearGradient><linearGradient id="p" x1="11.45" y1="63.77" x2="45.13" y2="12.8" gradientUnits="userSpaceOnUse"><stop offset=".32" stop-color="#9E2064"/><stop offset=".63" stop-color="#C92037"/><stop offset=".75" stop-color="#CD2335"/><stop offset="1" stop-color="#E97826"/></linearGradient><linearGradient id="q" x1="15.37" y1="61.82" x2="49.05" y2="10.85" gradientUnits="userSpaceOnUse"><stop offset=".32" stop-color="#9E2064"/><stop offset=".63" stop-color="#C92037"/><stop offset=".75" stop-color="#CD2335"/><stop offset="1" stop-color="#E97826"/></linearGradient></defs></svg>