<svg width="66" height="66" fill="none" xmlns="http://www.w3.org/2000/svg"><g clip-path="url(#a)" fill-rule="evenodd" clip-rule="evenodd"><path d="M5.33 42.95h1.84v-7.33l2.87 6.4c.32.76.79 1.05 1.7 1.05A1.55 1.55 0 0 0 13.4 42l2.86-6.4v7.34h1.85v-7.33a1.13 1.13 0 0 0-.88-1.24c-1.4-.43-2.33-.06-2.75.9l-2.82 6.32-2.7-6.33c-.42-.95-1.36-1.32-2.78-.9a1.11 1.11 0 0 0-.86 1.25v7.33Zm14.31-5.97h1.85v4.03c-.01.23.07.75 1.07.76.53.01 3.99 0 4.02 0v-4.82h1.85v6.6c0 1.62-2 1.98-2.93 2h-5.82V44.3h5.84c1.19-.13 1.04-.73 1.04-.93v-.49h-3.9c-1.83-.01-3-.82-3.02-1.75 0-.08.05-4.13 0-4.16Zm39.7-4.67a6.49 6.49 0 0 0-2.74.4c-.22.09-.56.09-.58.36.11.1.13.3.22.45.2.33.45.63.74.87.3.23.6.46.9.66.55.34 1.17.54 1.71.88.31.2.62.46.93.67.16.11.26.3.46.37v-.04c-.1-.13-.13-.32-.23-.46l-.42-.41a6.7 6.7 0 0 0-1.47-1.44c-.46-.32-1.44-.74-1.63-1.27l-.03-.03c.33-.05.66-.12.98-.23.48-.12.92-.1 1.41-.22l.68-.2v-.13c-.25-.26-.44-.6-.7-.84a18.85 18.85 0 0 0-2.34-1.76c-.44-.28-1-.47-1.47-.7-.17-.1-.45-.14-.55-.28a5.72 5.72 0 0 1-.58-1.1c-.4-.78-.8-1.65-1.15-2.47-.21-.56-.45-1.1-.73-1.63a14.3 14.3 0 0 0-5.46-5.33 6.73 6.73 0 0 0-1.8-.58l-1.07-.05a5.58 5.58 0 0 1-.65-.5c-.8-.52-2.88-1.63-3.47-.16-.38.93.56 1.84.89 2.3.27.34.51.7.72 1.08.1.24.13.5.22.75.21.65.45 1.29.74 1.9.15.32.32.61.52.9.11.15.3.22.35.48-.15.34-.26.7-.32 1.07a6.33 6.33 0 0 0 .4 4.78c.23.36.77 1.14 1.5.84.63-.25.48-1.06.67-1.78.04-.17.01-.28.1-.4v.03c.2.4.4.79.57 1.18a8.1 8.1 0 0 0 1.84 1.91c.34.26.6.7 1.03.86v-.05h-.02c-.1-.1-.2-.2-.33-.28a6.93 6.93 0 0 1-.73-.86c-.6-.81-1.13-1.68-1.58-2.59-.23-.44-.43-.92-.61-1.37-.09-.17-.09-.42-.23-.5-.26.29-.49.61-.68.96-.22.7-.36 1.42-.4 2.15-.05.02-.02 0-.05.03-.45-.11-.6-.58-.77-.98a6.21 6.21 0 0 1-.13-3.8c.1-.3.52-1.24.35-1.53-.08-.27-.36-.43-.52-.64-.2-.29-.37-.6-.5-.91-.35-.8-.52-1.68-.88-2.48-.2-.39-.45-.75-.71-1.1-.3-.34-.56-.71-.78-1.1-.07-.16-.17-.42-.05-.59a.23.23 0 0 1 .2-.19c.18-.15.7.05.88.13.5.19.96.43 1.4.71.2.15.41.42.67.49h.3c.44.1.95.03 1.38.16.71.24 1.4.57 2.03.98a12.6 12.6 0 0 1 4.4 4.87c.18.33.25.63.4.97.3.7.67 1.41.97 2.1.26.67.6 1.31 1 1.9.21.3 1.06.46 1.44.62.33.11.66.25.98.4.48.3.96.64 1.4.97.23.17.94.52.98.8Z" fill="#00678C"/><path d="M44.93 19.93c-.2 0-.39.02-.58.07v.03h.03c.14.2.29.4.45.58l.33.69.03-.03a.8.8 0 0 0 .3-.71l-.18-.3c-.08-.15-.26-.22-.38-.33Z" fill="#00678C"/><path d="M29.84 42.95h5.31a4 4 0 0 0 1.7-.35c.8-.37 1.19-.87 1.19-1.53V39.7c0-.52-.44-1.02-1.32-1.36a4.59 4.59 0 0 0-1.57-.27h-2.23c-.75 0-1.1-.23-1.2-.73a.7.7 0 0 1-.01-.17v-.84l.01-.16c.1-.38.3-.48.95-.56h5.43v-1.24h-5.16c-.5-.02-1.01.03-1.5.16-1.09.34-1.57.89-1.57 1.84v1.08c0 .84.93 1.56 2.52 1.73l.53.01h1.91c.07 0 .13 0 .2.02.57.05.83.15 1 .37a.43.43 0 0 1 .14.34V41a.63.63 0 0 1-.25.44c-.23.17-.51.26-.8.26l-.18.01h-5.1v1.24Zm19.7-2.15c0 1.27.94 1.98 2.84 2.12.18.02.35.03.53.03h4.8v-1.24h-4.84c-1.07 0-1.48-.27-1.48-.92v-6.41h-1.85v6.42Zm-10.33.06v-4.42c0-1.12.79-1.8 2.33-2.02l.5-.03h3.5c.18 0 .34.01.52.03 1.54.21 2.32.9 2.32 2.02v4.42a1.64 1.64 0 0 1-1.09 1.72l1.8 1.65h-2.12L45.5 42.9l-1.49.09h-1.97c-.37 0-.73-.05-1.08-.14-1.17-.33-1.75-.96-1.75-1.98Zm2-.1c0 .06.01.13.03.19.1.5.58.8 1.32.8h1.66l-1.52-1.4h2.13l1.34 1.22a.88.88 0 0 0 .47-.6.81.81 0 0 0 .01-.18v-4.23a.7.7 0 0 0-.01-.17c-.1-.49-.58-.76-1.3-.76h-2.78c-.82 0-1.36.36-1.36.93v4.2Zm17.35 2.2h.27v-1.03h.36v-.22h-1v.22h.37v1.04Zm2.05 0h.26v-1.25h-.38l-.32.86-.33-.86h-.37v1.26h.24V42h.02l.35.96h.18l.36-.96v.96Z" fill="#CE8B2C"/></g><defs><clipPath id="a"><path fill="#fff" transform="translate(5 16)" d="M0 0h56v30H0z"/></clipPath></defs></svg>