<svg width="66" height="66" fill="none" xmlns="http://www.w3.org/2000/svg"><g clip-path="url(#a)"><path d="M33 5.14c-14.91 0-27 12.27-27 27.4 0 15.12 12.09 27.39 27 27.39s27-12.27 27-27.4C60 17.42 47.91 5.15 33 5.15Zm0 51.27c-4.24 0-7.68-2.87-7.68-6.42h15.36c0 3.54-3.44 6.42-7.68 6.42Zm12.69-8.55H20.3V43.2h25.38v4.67Zm-.1-7.07H20.4c-.1-.1-.18-.2-.26-.3-2.6-3.2-3.2-4.86-3.8-6.57-.01-.05 3.15.66 5.39 1.17 0 0 1.15.27 2.84.58a10.78 10.78 0 0 1-2.58-6.87c0-5.5 4.15-10.29 2.65-14.17 1.46.12 3.02 3.12 3.12 7.81 1.55-2.17 2.2-6.14 2.2-8.57 0-2.52 1.64-5.44 3.27-5.54-1.45 2.44.38 4.53 2.01 9.71.62 1.95.54 5.23 1.01 7.3.16-4.3.89-10.61 3.59-12.79-1.2 2.74.18 6.17 1.11 7.82 1.51 2.66 2.42 4.67 2.42 8.48 0 2.56-.92 4.96-2.5 6.84 1.79-.34 3.02-.64 3.02-.64l5.8-1.15s-.85 3.51-4.08 6.9Z" fill="#DA4E31"/></g><defs><clipPath id="a"><path fill="#fff" transform="translate(6 5)" d="M0 0h54v55H0z"/></clipPath></defs></svg>