<svg width="66" height="66" fill="none" xmlns="http://www.w3.org/2000/svg"><g clip-path="url(#a)"><path d="M54.16 28.34H39.44a1.84 1.84 0 0 1-1.85-1.84V11.84A1.82 1.82 0 0 0 35.75 10h-5.51a1.84 1.84 0 0 0-1.84 1.83V26.5a1.82 1.82 0 0 1-1.85 1.84h-5.5a1.84 1.84 0 0 1-1.85-1.84V11.84A1.82 1.82 0 0 0 17.35 10h-5.52A1.84 1.84 0 0 0 10 11.84V54a1.82 1.82 0 0 0 1.84 1.83h42.32A1.84 1.84 0 0 0 56 54V30.21a1.82 1.82 0 0 0-1.84-1.87Zm-7.4 15.56A2.73 2.73 0 0 1 44 46.66h-3.69a2.76 2.76 0 0 1-2.75-2.76v-3.66a2.74 2.74 0 0 1 2.75-2.75h3.7a2.76 2.76 0 0 1 2.75 2.75v3.66Z" fill="#F60"/></g><defs><clipPath id="a"><path fill="#fff" transform="translate(10 10)" d="M0 0h46v46H0z"/></clipPath></defs></svg>