<svg width="66" height="66" fill="none" xmlns="http://www.w3.org/2000/svg"><g clip-path="url(#a)"><path d="M58.85 45.86c-2.94 1.55-18.15 7.9-21.38 9.62-3.24 1.71-5.04 1.7-7.6.45-2.55-1.24-18.73-7.88-21.65-9.3-1.45-.7-2.22-1.3-2.22-1.86v-5.64s21.07-4.66 24.47-5.9c3.4-1.24 4.58-1.28 7.47-.2 2.9 1.07 20.2 4.24 23.06 5.3v5.57c0 .56-.66 1.17-2.15 1.96Z" fill="#912626"/><path d="M58.84 40.25c-2.93 1.55-18.14 7.9-21.37 9.61-3.24 1.72-5.04 1.7-7.6.46-2.55-1.24-18.73-7.88-21.65-9.3-2.91-1.4-2.97-2.38-.1-3.52 2.85-1.14 18.95-7.55 22.35-8.79 3.4-1.24 4.58-1.28 7.47-.2 2.9 1.07 18 7.18 20.87 8.24 2.86 1.07 2.97 1.94.03 3.5Z" fill="#C6302B"/><path d="M58.85 36.73c-2.94 1.55-18.15 7.9-21.38 9.61-3.24 1.72-5.04 1.7-7.6.46-2.55-1.24-18.73-7.88-21.65-9.3C6.77 36.8 6 36.2 6 35.64v-5.65s21.07-4.66 24.47-5.9c3.4-1.23 4.58-1.28 7.47-.2 2.9 1.07 20.2 4.24 23.06 5.3v5.57c0 .56-.66 1.17-2.15 1.97Z" fill="#912626"/><path d="M58.84 31.11c-2.93 1.56-18.14 7.9-21.37 9.62-3.24 1.71-5.04 1.7-7.6.45-2.55-1.24-18.73-7.87-21.65-9.29-2.91-1.41-2.97-2.39-.1-3.53 2.85-1.13 18.95-7.55 22.35-8.78 3.4-1.24 4.58-1.29 7.47-.21 2.9 1.07 18 7.18 20.87 8.25 2.86 1.06 2.97 1.94.03 3.5Z" fill="#C6302B"/><path d="M58.85 27.25c-2.94 1.55-18.15 7.9-21.38 9.62-3.24 1.71-5.04 1.7-7.6.45-2.55-1.24-18.73-7.88-21.65-9.29-1.45-.7-2.22-1.3-2.22-1.87v-5.64s21.07-4.66 24.47-5.9c3.4-1.24 4.58-1.28 7.47-.2 2.9 1.07 20.2 4.24 23.06 5.3v5.57c0 .56-.66 1.17-2.15 1.96Z" fill="#912626"/><path d="M58.84 21.64c-2.93 1.55-18.14 7.9-21.37 9.62-3.24 1.7-5.04 1.7-7.6.45-2.55-1.24-18.73-7.88-21.65-9.3-2.91-1.4-2.97-2.38-.1-3.52 2.85-1.14 18.95-7.55 22.35-8.79 3.4-1.24 4.58-1.28 7.47-.2 2.9 1.07 18 7.18 20.87 8.24 2.86 1.07 2.97 1.95.03 3.5Z" fill="#C6302B"/><path d="m40.22 16.15-4.73.5-1.06 2.58-1.7-2.88-5.47-.5 4.08-1.5-1.22-2.29 3.81 1.52 3.6-1.2-.98 2.37 3.67 1.4ZM34.15 28.7l-8.82-3.72L37.97 23l-3.82 5.69ZM21.92 17.58c3.73 0 6.76 1.2 6.76 2.67 0 1.46-3.03 2.66-6.76 2.66-3.74 0-6.76-1.2-6.76-2.66 0-1.47 3.02-2.67 6.76-2.67Z" fill="#fff"/><path d="m45.81 16.85 7.48 3-7.47 3-.01-6Z" fill="#621B1C"/><path d="m37.53 20.18 8.28-3.33v6l-.8.33-7.48-3Z" fill="#9A2928"/></g><defs><clipPath id="a"><path fill="#fff" transform="translate(6 9)" d="M0 0h55v48H0z"/></clipPath></defs></svg>