<svg xmlns="http://www.w3.org/2000/svg" width="62" height="62" viewBox="0 0 256 256" style="fill:#000"><g fill="none" stroke-miterlimit="10" font-family="none" font-weight="none" font-size="none" text-anchor="none" style="mix-blend-mode:normal"><path d="M247.32 110.44 202.9 33.5a35.33 35.33 0 0 0-30.5-17.6H83.57a35.33 35.33 0 0 0-30.5 17.6L8.67 110.44a35.28 35.28 0 0 0 0 35.2l44.42 76.92a35.26 35.26 0 0 0 30.5 17.6h88.82a35.26 35.26 0 0 0 30.5-17.6l44.42-76.92a35.28 35.28 0 0 0 0-35.2zm-71.72 61.6a63.69 63.69 0 0 1-47.68 21.18 63.57 63.57 0 0 1-42.78-16.45 64.12 64.12 0 0 1-4.74-90.46 61.52 61.52 0 0 1 5.86-5.7 9.6 9.6 0 1 1 12.48 14.56A44.87 44.87 0 0 0 98 162.5a44.35 44.35 0 0 0 32.36 11.46 44.59 44.59 0 0 0 30.97-14.79A44.9 44.9 0 0 0 158 95.84a9.61 9.61 0 0 1 12.87-14.27c26.24 23.62 28.35 64.2 4.73 90.47zm-57.21-47.3V70.47a9.6 9.6 0 0 1 19.2 0v54.27a9.6 9.6 0 0 1-19.2 0zm48.38 287.17-19.84-33.6a20.52 20.52 0 0 0-7.26-7.27l-.51-.9h-1.1a20.88 20.88 0 0 0-9.05-2.07H88.6c-3.2 0-6.28.73-9.06 2.08h-1.4l-.71 1.18a20.73 20.73 0 0 0-6.75 6.98l-19.84 33.6a20.8 20.8 0 0 0-2.88 9.98l-.32.58.32.57a20.8 20.8 0 0 0 2.88 9.99l19.84 33.6a20.52 20.52 0 0 0 6.78 6.97l.67 1.16h1.35a20.63 20.63 0 0 0 9.12 2.1H129c3.2 0 6.3-.73 9.12-2.1h1.03l.48-.84a20.44 20.44 0 0 0 7.3-7.3l19.83-33.6a20.8 20.8 0 0 0 0-21.11zm-71.8 26.78a20.79 20.79 0 0 0 27.8-30.88 4.78 4.78 0 0 1-.35-6.78 4.78 4.78 0 0 1 6.78-.35 30.43 30.43 0 0 1 2.24 42.9 30.3 30.3 0 0 1-22.59 10.06 30.4 30.4 0 0 1-19.8-53.44 4.81 4.81 0 0 1 6.27 7.3c-.68.57-1.32 1.18-1.92 1.85a20.82 20.82 0 0 0 1.56 29.34zm9.08-21.02v-22.4a4.8 4.8 0 1 1 9.6 0v22.4a4.8 4.8 0 1 1-9.6 0zm46.82 214.27a17.12 17.12 0 0 0-2.24-7.07l-13.86-24c-1.28-2.24-3-4.1-5.05-5.54l-.96-1.66h-1.92a17.22 17.22 0 0 0-7.3-1.6H91.83c-2.56 0-5.03.54-7.3 1.6h-1.92l-.96 1.66a17.14 17.14 0 0 0-5.05 5.54l-13.86 24a17.12 17.12 0 0 0-2.24 7.07l-.96 1.66.93 1.64c.22 2.5.96 4.99 2.27 7.23l13.86 24c1.3 2.27 3.1 4.19 5.18 5.63l.83 1.44h1.63a17.56 17.56 0 0 0 7.59 1.73h27.7c2.67 0 5.26-.61 7.6-1.73h1.63l.83-1.44a17.52 17.52 0 0 0 5.18-5.63l13.86-24a17.4 17.4 0 0 0 2.27-7.23l.93-1.64zm-54.7 12.96a14.18 14.18 0 1 0 18.98-21.09 3.6 3.6 0 1 1 4.83-5.34 21.43 21.43 0 0 1 1.6 30.2 21.35 21.35 0 0 1-14.78 7.05 21.1 21.1 0 0 1-15.42-5.47 21.25 21.25 0 0 1-7.07-14.76 21.4 21.4 0 0 1 7.42-17.34 3.6 3.6 0 0 1 4.7 5.44 14.12 14.12 0 0 0-4.93 11.52c.2 3.77 1.86 7.26 4.68 9.79zm5.9-11.71v-18.34a3.6 3.6 0 0 1 7.2 0v18.34a3.6 3.6 0 0 1-3.59 3.61 3.63 3.63 0 0 1-3.61-3.61zm24.83 140.1c-.16-1.57-.67-3.11-1.5-4.52l-6.56-11.17a11.13 11.13 0 0 0-3.24-3.45l-.57-.96h-1.1a10.66 10.66 0 0 0-4.76-1.12h-13.5c-1.67 0-3.3.38-4.77 1.12h-.83l-.42.7c-1.47.9-2.72 2.18-3.61 3.71l-6.6 11.17a10.96 10.96 0 0 0-1.53 5.03l-.35.6.35.61c.06 1.8.57 3.55 1.53 5.15l6.6 11.17c.92 1.57 2.2 2.88 3.74 3.8l.29.49h.57c1.54.83 3.27 1.25 5.03 1.25h13.5c1.8 0 3.52-.45 5.06-1.25h.8l.45-.74c1.34-.9 2.5-2.1 3.36-3.55l6.56-11.17a10.72 10.72 0 0 0 1.5-4.67l.64-1.09zm-29.66 7.23a7.4 7.4 0 0 0 5.56 1.98 7.66 7.66 0 0 0 5.35-2.56 7.67 7.67 0 0 0-.58-10.91c-.8-.7-.86-1.92-.13-2.7.7-.8 1.92-.85 2.7-.15 2.3 2.08 3.64 4.9 3.8 8 .2 3.07-.86 6.05-2.94 8.35a11.4 11.4 0 0 1-8 3.8h-.61a11.56 11.56 0 0 1-7.55-20.32c.8-.7 2.01-.6 2.72.2.7.8.6 2.02-.2 2.69a7.77 7.77 0 0 0-2.69 6.27 7.73 7.73 0 0 0 2.57 5.35zm3.23-6.05v-9.44c0-1.06.86-1.92 1.92-1.92a1.9 1.9 0 0 1 1.92 1.92v9.44a1.9 1.9 0 0 1-1.92 1.92 1.93 1.93 0 0 1-1.92-1.92z" fill="#fff"/><path d="M244.53 112.04 200.12 35.1a32.01 32.01 0 0 0-27.72-16H83.57a32.01 32.01 0 0 0-27.71 16l-44.42 76.93a31.94 31.94 0 0 0 0 32l44.42 76.92c5.7 9.92 16.29 16 27.71 16h88.83a31.94 31.94 0 0 0 27.72-16l44.41-76.92a31.94 31.94 0 0 0 0-32zm-68.93 60a63.69 63.69 0 0 1-47.68 21.18 63.57 63.57 0 0 1-42.78-16.45 64.12 64.12 0 0 1-4.74-90.46 61.52 61.52 0 0 1 5.86-5.7 9.6 9.6 0 1 1 12.48 14.56A44.87 44.87 0 0 0 98 162.5a44.35 44.35 0 0 0 32.36 11.46 44.59 44.59 0 0 0 30.97-14.79A44.9 44.9 0 0 0 158 95.84a9.61 9.61 0 0 1 12.87-14.27c26.24 23.62 28.35 64.2 4.73 90.47zM137.6 70.47v54.27a9.6 9.6 0 0 1-19.2 0V70.47a9.6 9.6 0 0 1 19.2 0z" fill="#6db33f"/><path d="M247.32 110.44 202.9 33.5a35.33 35.33 0 0 0-30.5-17.6H83.57a35.33 35.33 0 0 0-30.5 17.6L8.67 110.44a35.28 35.28 0 0 0 0 35.2l44.42 76.92a35.26 35.26 0 0 0 30.5 17.6h88.82a35.26 35.26 0 0 0 30.5-17.6l44.42-76.92a35.28 35.28 0 0 0 0-35.2zM172.4 233.76H83.57a28.9 28.9 0 0 1-24.96-14.4L14.2 142.44a28.92 28.92 0 0 1 0-28.8L58.6 36.7a28.9 28.9 0 0 1 24.96-14.4h88.83a28.9 28.9 0 0 1 24.96 14.4l44.42 76.93a28.92 28.92 0 0 1 0 28.8l-44.42 76.92a28.9 28.9 0 0 1-24.96 14.4z" fill="#6db33f"/></g></svg>