<svg width="66" height="66" fill="none" xmlns="http://www.w3.org/2000/svg"><g clip-path="url(#a)"><path d="M48.1 43.73h7.45v-17.8l-8.39-8.34-5.27 5.24L48.1 29v14.73Zm7.47 3.71H29.6l-6.21-6.18 2.63-2.62 5.13 5.1H41.7L31.3 33.39l2.65-2.64 10.4 10.35v-10.5l-5.11-5.09 2.61-2.6L28.95 10H3l7.43 7.39v.02h15.4l5.45 5.42-7.96 7.91-5.44-5.41v-4.2h-7.45v7.27l12.9 12.82-5.26 5.22 8.4 8.35H63l-7.43-7.35Z" fill="#736F70"/></g><defs><clipPath id="a"><path fill="#fff" transform="translate(3 10)" d="M0 0h60v45H0z"/></clipPath></defs></svg>