<svg xmlns="http://www.w3.org/2000/svg" width="62" height="62" viewBox="0 0 48 48"><path fill="#1976d2" d="M38.2 18.36a14.75 14.75 0 0 0-4.4-7.03l-4.6 4.6a8.24 8.24 0 0 1 3.01 5.64v1.51h.08a4.22 4.22 0 0 1 0 8.42H24V38H32.29a10.72 10.72 0 0 0 5.9-19.64z"/><path fill="#ffe082" d="m19.56 25.59 4.72-4.72-.01-.01-4.72 4.71.01.02z" opacity=".5"/><path fill="#90caf9" d="m19.56 25.59 4.72-4.72-.01-.01-4.72 4.71.01.02z" opacity=".5"/><path fill="#ff3d00" d="M24 7.58A14.77 14.77 0 0 0 9.25 22.33c0 .23.02.46.04.69h6.5a8.26 8.26 0 0 1 13.41-7.09l4.6-4.6A14.67 14.67 0 0 0 24 7.58z"/><path fill="#90caf9" d="M15.71 31.5c-.61 0-1.19-.14-1.71-.37l-4.71 4.7A10.64 10.64 0 0 0 15.7 38H24v-6.5h-8.29z" opacity=".5"/><path fill="#4caf50" d="M15.71 31.5c-.61 0-1.19-.14-1.71-.37l-4.71 4.7A10.64 10.64 0 0 0 15.7 38H24v-6.5h-8.29z"/><path fill="#ffc107" d="M11.5 27.29a4.22 4.22 0 0 1 8.05-1.72l4.72-4.71A10.7 10.7 0 0 0 5 27.29c0 3.5 1.7 6.59 4.29 8.55l4.7-4.71a4.21 4.21 0 0 1-2.49-3.84z"/></svg>