<svg width="66" height="66" fill="none" xmlns="http://www.w3.org/2000/svg"><g clip-path="url(#a)"><path d="M7.08 42.48c.48.64 1.1 1.15 1.8 1.5a5.4 5.4 0 0 0 2.48.56c.7.01 1.38-.1 2.03-.35a3.52 3.52 0 0 0 2.09-2.34c.15-.55.23-1.13.22-1.7v-2.01h-.04a4.3 4.3 0 0 1-1.87 1.62 6.02 6.02 0 0 1-6.45-1.13 5.66 5.66 0 0 1-1.7-4.07 5.93 5.93 0 0 1 1.62-4.1c.51-.54 1.12-.96 1.8-1.24a5.77 5.77 0 0 1 3.34-.34 5.03 5.03 0 0 1 3.26 2.05h.04v-1.86h1.58v11.07c0 .65-.08 1.3-.23 1.94a4.78 4.78 0 0 1-2.7 3.32c-.79.38-1.8.57-3.06.57a6.93 6.93 0 0 1-5.37-2.24l1.16-1.25Zm.3-7.97a4.28 4.28 0 0 0 4.15 4.3c1.11 0 2.19-.42 3-1.18.4-.38.72-.84.92-1.35.22-.57.33-1.17.3-1.77 0-.57-.1-1.13-.29-1.66a3.99 3.99 0 0 0-2.17-2.3 4.35 4.35 0 0 0-3.4 0 4.28 4.28 0 0 0-2.52 3.96Zm16.32 5.73h-1.72v-16.9h5.2c1.73 0 3.08.37 4.08 1.12 1 .75 1.49 1.88 1.49 3.39a4.22 4.22 0 0 1-1.11 2.97 4.77 4.77 0 0 1-3.21 1.4l4.87 8.02h-2.1l-4.63-7.86H23.7v7.86Zm0-9.43h3.06c.65.01 1.3-.07 1.94-.24.47-.12.9-.34 1.28-.63.3-.25.54-.57.7-.93a3.09 3.09 0 0 0 0-2.3 2.4 2.4 0 0 0-.7-.94c-.38-.3-.81-.51-1.28-.63a7.22 7.22 0 0 0-1.94-.23H23.7v5.9Zm12.56-7.47h4.92c1.72 0 3.07.37 4.07 1.12 1 .75 1.49 1.88 1.49 3.39 0 1.51-.5 2.64-1.5 3.4a6.57 6.57 0 0 1-4.06 1.13h-3.2v7.86h-1.72v-16.9Zm1.72 7.47h2.77c.65.01 1.3-.07 1.94-.24.47-.12.9-.34 1.28-.63.3-.25.54-.57.7-.93a3.09 3.09 0 0 0 0-2.3 2.4 2.4 0 0 0-.7-.94c-.38-.3-.81-.51-1.28-.63a7.23 7.23 0 0 0-1.94-.23h-2.77v5.9ZM64 37.57a6.56 6.56 0 0 1-2.5 2.2 8.24 8.24 0 0 1-3.76.9 9.04 9.04 0 0 1-3.5-.67 8.4 8.4 0 0 1-4.64-4.65 9.25 9.25 0 0 1-.66-3.56 9.25 9.25 0 0 1 .66-3.56 8.39 8.39 0 0 1 4.65-4.65 9.04 9.04 0 0 1 6.65-.05c1.06.42 2 1.13 2.7 2.05l-1.51 1.12a5.23 5.23 0 0 0-1.75-1.53c-.4-.2-.82-.37-1.26-.5a4.85 4.85 0 0 0-1.34-.19A6.61 6.61 0 0 0 51.27 29a8.34 8.34 0 0 0 0 5.57 6.6 6.6 0 0 0 6.47 4.52c.45 0 .9-.04 1.33-.12a4.88 4.88 0 0 0 2.48-1.18c.4-.36.75-.77 1.04-1.23l1.41 1Z" fill="#244B5A"/><path d="M4.45 28.87 0 24.45 4.42 20l4.45 4.42-4.42 4.45Z" fill="url(#b)"/><path d="m16.57 26.98-2.62-2.59 2.6-2.6 2.6 2.58-2.58 2.61Z" fill="url(#c)"/><path d="m4.61 21.75-2.67 2.7 2.7 2.68 2.27-.01-2.39-2.38 11.81-.04-1.03 1.04h1.14l1.34-1.35-1.35-1.34h-1.14l1.04 1.04-11.8.05 2.36-2.4-2.28.01Z" fill="#244B5A"/></g><defs><linearGradient id="b" x1="-440.73" y1="-413.01" x2="446.33" y2="-416.31" gradientUnits="userSpaceOnUse"><stop stop-color="#72C9C9"/><stop offset="1" stop-color="#02B0AD"/></linearGradient><linearGradient id="c" x1="-244.55" y1="-232.2" x2="275.75" y2="-234.13" gradientUnits="userSpaceOnUse"><stop stop-color="#03B6B4"/><stop offset="1" stop-color="#74CBCA"/></linearGradient><clipPath id="a"><path fill="#fff" transform="translate(0 20)" d="M0 0h64v26H0z"/></clipPath></defs></svg>