<svg width="66" height="66" fill="none" xmlns="http://www.w3.org/2000/svg"><g clip-path="url(#a)"><path d="M52.64 31.98c0 11.1-8.8 20.1-19.64 20.1-10.85 0-19.64-9-19.64-20.1 0-11.09 8.8-20.09 19.64-20.09 10.85 0 19.64 9 19.64 20.1Z" fill="#D33833"/><path d="M14.16 36.96s-1.42-20.95 17.88-21.55l-1.34-2.24-10.48 3.51-3 3.45-2.61 5-1.5 5.85.45 3.89" fill="#EF3D3A"/><path d="M19.55 18.28a19.65 19.65 0 0 0-5.58 13.78c0 5.38 2.13 10.25 5.58 13.78a18.75 18.75 0 0 0 26.9 0 19.65 19.65 0 0 0 5.58-13.78c0-5.39-2.13-10.25-5.58-13.78a18.75 18.75 0 0 0-26.9 0Zm-.87 28.41a20.87 20.87 0 0 1-5.93-14.63c0-5.71 2.26-10.89 5.93-14.63a19.97 19.97 0 0 1 28.64 0 20.87 20.87 0 0 1 5.93 14.63c0 5.7-2.26 10.89-5.93 14.63a19.97 19.97 0 0 1-28.64 0Z" fill="#231F20"/><path d="m41.27 32.1-3 .45-4.04.44-2.61.08-2.55-.08-1.94-.6-1.72-1.86-1.35-3.82-.3-.82-1.8-.6-1.04-1.72-.75-2.47.82-2.17 1.95-.68 1.57.75.75 1.65.9-.15.3-.38-.3-1.72-.08-2.17.45-2.99-.02-1.7 1.36-2.19 2.4-1.72 4.19-1.8 4.64.68 4.04 2.92L45 12.42l1.2 2.17.3 5.39-.9 4.63-1.65 4.12-1.57 2.17" fill="#F0D6B7"/><path d="m43.51 29.93-1.8 1.8v6.95l-1.56 6.41-.75.02.6 7.19 2.84-.38-.67-6.88-1.27.03 3.44-.18s1.72-4.34 1.72-4.56c0-.23 1.5-6.29 1.5-6.29l-3.37-3.52-.68-.6Zm-18.03 1.12-1.87.75-5.99 4.11.38 1.2 1.72 5.09.75 8.45.52.9 7.48 2.54.45-.52-.9-6.29v-1.8l10.7-.44.83-.45-6.51-3.07 1.2-2.32-1.73.6-.67-.82-.9-3.9-.75-.22-1.64-.52-1.42-1.27-1.65-2.02Z" fill="#335061"/><path d="m21 18.93 1.94-.68 1.57.75.75 1.65.9-.15.22-.9-.45-1.72.45-4.12-.38-2.24 1.35-1.57 2.92-2.32-.82-1.12-4.12 2.02-1.72 1.34-.97 2.1-1.5 2.02-.45 2.4.3 2.54Z" fill="#6D6B6D"/><path d="M31 6.76c-.5 0-1.1.05-1.1.05l-4.87 1.87-1.87 1.87-.82 1.5 1.72-.16s1.12-2.76 5.61-4.11c2.8-.84 2.2-1.01 1.34-1.02Zm-5 4.76-4.11.97-1.2 3.9.3 2.54.82-.53s-1.57-5.23 4.42-5.98l-.23-.9Z" fill="#DCD9D8"/><path d="M35.62 5.2c-.58.02-1.15.13-1.69.34-4.48 1.72-7.78 4.86-7.7 6.88.13 3.44.07 3.44.07 3.44S27.58 9.28 34.01 8c5.3-1.04 8.08.23 9.13 1.42 0 0-3.61-4.3-7.52-4.21Zm8.02 4.97c-.24 0-2.15.05-2.22 1.87 0 0 0 .3.15.6 0 0 1.72-1.94 2.77-.9l-.68-1.57h-.02Zm-11.02.88c-.37.01-.82.17-1.38.55-1.64 1.12-1.5 2.69-1.2 2.99.3.3.22.9.45.49.23-.42.15-1.76.98-2.14.82-.37 2.17-.79 2.7-.1 0 0-.24-1.82-1.55-1.79Zm11.57 4.59s-1.24.26-1.35 1.34c-.12 1.09 1.35.23 1.57.15l-.22-1.5Zm-9.06.07s-1.64.23-1.64 1.27c0 1.05 1.87.98 2.39.53l-.75-1.8Zm-13.32 2.7L20.1 20.2l.3 2.24.9 2.32.97.3c-1.42-1.72-.75-2.92-.45-4.56.3-1.65 3.15.07 3.15.07l-.08-1.12-1.12-.9-1.95-.14Zm16.9 3.43c-.5-.02-.69 1.59-.73 2 .14-.4 1.4-1.2 1.4-1.2s0-.62-.62-.8h-.05Zm-.73 2a.17.17 0 0 0 0 .1v-.1Zm-12.8.57-.97.95.22 3.3 2.4 3.74s2.68.6 2.4.37C26 30.23 25.77 25.51 25.7 25c-.08-.52-.52-.58-.52-.58Zm8.43 1.12c-.3 0-.5.1-.55.17-.19.25.2 1.6.2 1.6l.38.08c-.08-1.5.82-1.64.82-1.64a1.91 1.91 0 0 0-.85-.21Z" fill="#F7E4CD"/><path d="m24.96 30.97-7.34 4.94.83 2.32 1.94 8.38.08 4.42 1.04.37c1.5-3.6-1.42-15.19-1.42-15.19l7.04-3.14-2.17-2.1Zm2.89 8.51-.2.47s-.15 1.35-.15 1.72c0 .38.15 3.52.15 3.52h1.2V40.7l-1-1.22Zm.02 6.38-3.36.15.97.68 2.4.37v-1.2Zm15.64-15.93L42.1 31.5l5.24 3.89.15-1.8-3.97-3.66Zm-1.5 14.66-2.61.52.37 2.1c.97.45 2.62-.75 2.62-.75l-.37-1.87Z" fill="#49728B"/><path d="M27.13 32.4v.67l.95 1.05 2.99 1.34.08-2.24-2.08-.23-1.94-.6Zm21.9 10.62-2.4.75-2.3 1.12-1.21-.22-.95.37.8 6.29 2.91-.83 5.54-.3.82-2.54-1.5-4.41-1.71-.23Zm-9.63 2.1h-4.36l-7.02.37.13 3.44.77 4.64 1.55 6.29 3.44.74 5.69-.45.07-1.12-.67-6.06.4-7.86Zm.57-.6-1.64-4.2-1.72-2.46s.37-1.05.9-1.05h1.72l1.64.6-.15 2.77-.75 4.34Z" fill="#C9C9C9"/><path d="m27.8 33.44-.22.3 1.27.9 2.1.45-.08-.9c-.75.23-3.07-.75-3.07-.75Zm10.4 3.22-1.72.22 2.92 6.89.6.07.3-.74s-2.1-4.05-2.1-4.64c0 0 .37-.9.9-.68.52.23 1.64.83 1.64.83v-1.43l-2.54-.52Zm7.1 7.86-.96.37.82 4.12c-.3-.08-2.25.82-2.25.82l.23 1.2.82-.3 2.62-.38.75.98 2.24.07 1.35-.3 1.2-1.8-.08-1.34-.82-2.4c.22 1.8-.67 3.52-.67 3.52-.38 0-4.57-.22-4.57-.22 0-.45-.67-4.34-.67-4.34Zm-5.75.07-1.13.45s-.37 7.78.75 13.32c0 0-2.24 1.42-5.53 1.8l6.28-.23.75-.45-.9-12.27-.22-2.62Zm1.95 8c-.32 0-.8.24-1.14.21-.05 1.19.12 3.08.18 4.32.78 0 1.12-.17 1.7-.37.07-1.46-.46-2.8-.61-4.14a.5.5 0 0 0-.13-.01Z" fill="#DCD9D8"/><path d="M42.09 32.92c-.96.05-2.25 1.27-2.85 1.48.07.23.2.4.21.69.42-.1.94-.03 1.3.15-.42.04-.89.04-1.17.24-.1.3.03.7-.04 1.11 1 .29 2.15.44 3.42.48.25-.32.33-.94.3-1.54-.03-.73-.23-2.24-.68-2.5a.88.88 0 0 0-.49-.11Zm-9.86.33c-1.02.02-.91 1.8-.86 2.88.04.92.52 1.9.73 2.5.1.29.12.59.36.64.43.1 1.85-.46 2.25-.68.86-.47 1.52-1.21 2.25-1.7l.03-.73a3.81 3.81 0 0 0-1.59-.4c.44-.22 1.08-.22 1.48-.48v-.29c-.72-.06-1-.38-1.47-.64a11.18 11.18 0 0 0-3.18-1.1Zm5.88 1.51c-.2 0-.43.08-.69.25-.05.55.08.73.19 1.36 1.53.48 1.54-1.62.5-1.61Z" fill="#D33833"/><path d="m42 32.4-2.85 1.64-.15.83v1.64l1.05.38s-.53-.75-.15-.98c.37-.22.75 0 .97-.37.23-.38 0-.6.08-1.05.07-.45.45-.52.82-.6.37-.07 1.42-.22 1.57.15l-.45-1.34-.9-.3Zm-9.43.45c-.37-.01-.7.05-.95.22-1.76 1.2-.35 3.96.52 5.59-.08-.94-.15-1.87-.24-2.8-.16-1.75.42-1.44 1.93-1.44.23 0 1.42.27 1.5.45.41.83-.68.64.47 1.27.98.53 2.7-.32 2.3-1.5-.22-.26-1.14-.08-1.48-.25l-1.75-.91a5.95 5.95 0 0 0-2.3-.63Zm-.43 5.8.05.7.27-.08-.32-.61Z" fill="#EF3D3A"/><path d="M34.56 5c-1.57.03-3.1.3-4.39.76-.95.35-1.87.67-2.7 1.16-2.24 1.31-4.62 2.19-5.28 4.83-1.63.73-2.13 2.82-2.04 5.25.01.47.27 1.06.18 1.5-.04.24-.35.52-.41.67-.79 1.87-.16 4.32.75 5.65.54.8 1.45 1.51 2.64 1.7.05.72.22 1.33.55 2.06.21.45 1 1.28.7 1.86-.14.3-1.4.94-1.83 1.2-1.43.85-2.46 1.37-3.77 2.32-.85.6-2.18.69-1.97 2.1.14.95.68 2.13 1 3.09.33 1.03.8 1.97 1.08 3.04.62 2.39.75 4.64.9 6.97.06.9-.04 1.87.2 2.38.24.52 1.14.68 1.8.99 1.89.87 3.89 2.2 6.36 1.94.6 1.98 1.15 4.1 1.86 5.83 2.54.92 6.55.77 9.19.46.8-.1 1.65-.5 1.83-1.2-.05-.42-.11-.84-.09-1.35.83-.17 1.95-.31 2.13-1.23.26-1.28-.8-3.11-.45-4.52.48-.15.99-.27.91-1.03.8-.42 1.76-.51 2.78-.47.13.25.32.5.49.64 1.42.28 2.8.3 4-.08 1.33-.44 1.97-3.18 1.67-4.49-.22-.92-.71-2.44-1.13-3.34-1.14-2.43-4.53-.9-6.35 0 .88-2.32 1.64-4.72 2.42-7.32.23-.78.69-1.88.58-2.69-.1-.76-1.27-1.55-1.9-2.15-.34-.34-1.96-1.56-2.05-2.02-.1-.44.66-1.45.9-1.95.34-.72.6-1.6.76-2.2 1.27-4.46 1.4-10.59-.41-14.26-.7-1.39-2.61-3.3-3.81-4.21-1.77-1.34-4.48-1.94-7.1-1.89Zm.2 1.25c2.13-.03 4.49.72 6.08 1.62 1.34.76 2.32 2.21 3.26 3.42-1.31-.39-2.43.28-2.23 1.37 1.1-1.01 2.98-.01 3.54 1.1.53 1.07.53 2.66.61 4.24.2 3.85-.7 7.82-2.64 10.6-.51.75-.95 1.56-1.68 2.07-1.75 1.23-4.41 2.35-6.7 1.58-3-1-4.38-3.02-6.03-5.32.04 1.27.93 2.3 1.8 3.27.77.84 1.7 1.8 2.68 2.19-.82-.2-2.1-.26-2.44.48-1.93-.12-3.72-.32-4.63-1.63a13.96 13.96 0 0 1-1.78-4.14 4.7 4.7 0 0 1-.15-1.02c.1-.59 1.15-.85.74-1.67-.76 0-.93.7-1.63.76-1.8.18-3.08-2.39-3-3.94.07-1.32 1.19-2.58 2.71-2.41 1.08.12 1.45 1.3 1.66 2.34.62.03 1.51-.03 1.8-.51-.03-1.19-.58-2.13-.55-3.22.08-2.04 1.19-3.89.33-5.9.92-2.08 3.61-3.73 5.6-4.72a6.09 6.09 0 0 1 2.66-.56Zm-5.48 1.02c.09.02.17.08.25.17-.02.35-.37.34-.6.46-.37.45-.9.66-1.35 1.15-.46.51-.98 1.88-1.58 2.03-.31.07-.66-.06-.92-.04-.7.05-1.2.4-1.91.5.92-2 3.79-3.63 6.02-4.26a.2.2 0 0 1 .1 0Zm3.83 4.36c-1.16 0-2.47 1.24-2.81 2.18-.14.38-.36 1.13.19 1.27.62-1.38 1.63-2.7 3.67-2.23.4-.65-.3-1.12-.82-1.2a1.53 1.53 0 0 0-.23-.02Zm-7.29.21c.79 2.01-.57 4.4-.06 6.59.15.67.69 1.71-.17 1.74.03-1.91-2.34-3.13-4.13-2-.12-1.45-.33-3.5.66-4.58.91-1 2.17-1.63 3.7-1.75Zm18.28 3.33c-.07 1.1.34 1.76.62 2.54-.49.31-1.44.12-2 .36-.03 1.63 2.53.83 2.91-.08-.58-.85-.98-1.86-1.44-2.82h-.1Zm-8.9.02c-.3.86.52 2.32.99 3.06-.6.58-1.69.1-2.49.06-.77 1.21 1.5 1.44 2.47 1.15.27-.08.73-.47.79-.65.27-.76-.27-1.1-.55-1.37-.63-.6-.77-1.45-1.2-2.25Zm4.62.8c-.06-.01-.13 0-.21.07-.06 2.02 1.44 3.7 2.56 5.04.55.66 1.2 1.03.6 2.06-.98.37-2.56 1.43-3.92 1.2-.72-.12-.56-.94-.82-1.39-.5.66-.3 1.65.21 2.1 2.4.23 4.03-.79 5.5-1.73-.07-.37.43-1.03.3-1.59-.05-.19-.49-.46-.75-.75-1.07-1.17-2.54-2.92-3.13-4.29-.05-.12-.09-.7-.34-.72Zm-17.05 3.77c-.56 0-1.06.36-1.18 1.22.25-.16.45-.62.89-.4-.4.76-.3 2.24.23 2.72 0-.9-.14-2.44.63-2.4.54.04.65 1.19 1.1 1.45.32-1.52-.75-2.57-1.67-2.59Zm21.9 4.54c-1.18.53-2.12 1.3-3.65 1.45-.07.26-.04.9 0 1.31 2-.04 2.96-1.47 3.64-2.76Zm-9.58.84c.58 1.56 3.22 2.11 5.44 2 0-.46 0-.93-.1-1.31-1.72.05-4.07-.02-5.34-.7Zm-.24 1.25c-1.13 0-.18.62.01.87.4.5.86 1.37 1.58 1.76 1.14.6 3.4.35 4.21.01.3-.12.55-.46.66-.75-2.55.06-5.58.32-6.46-1.9Zm8.5 4.3c.88.7 1.4 1.36 2.24 2.12.46.4 1.35.9 1.44 1.56.06.36-.17 1.27-.25 1.68a37.08 37.08 0 0 1-1.99 6.12c-.28.7-.56 1.56-.93 1.71-1.04.41-2.3-.04-3.17.5 1.18-2.04 2.47-3.98 3.62-6.05-.17-.41-.6-.59-.73-1.05.81-1.53.44-6.3-1.64-5.3.3-.42 1.06-.77 1.41-1.3ZM25.1 31.77c.19-.07 1.56 1.72 1.76 1.86 1.12.8 2.5 1.42 3.8 2.04.08.6.26 1.36.59 2.4.35 1.13.65 2.74 2.15 1.92-.14.65-.98 1.05-.75 1.81.15.48 1.73 1.06 2.23 1.35.92.52 1.76.8 2.47 1.1-3.22.1-6.25.36-9.23.77-.36-.56-.21-1.4-.25-2.29-.04-.96.36-3.11-.02-3.25-.43-.15-.5.71-.52.9-.08 1.01.48 3.15-.07 4.36-.6-.17-.9-.63-1.47-.83-.22.7.46.73.39 1.18-.1.58-1.2.1-1.2.97.72.11 1.84-.23 2.61.1.2 2.37.53 4.63.89 7.15-3.09-.16-5.08-1.7-7.36-2.75-.14-5.03-.94-10.25-2.92-14.5 2.08-1.6 4.4-3.3 6.9-4.29Zm17.1 1.15c.13 0 .26.04.38.11.45.26.65 1.77.68 2.5.03.6-.05 1.21-.3 1.54a14.2 14.2 0 0 1-3.42-.48c.07-.4-.06-.81.04-1.1.28-.2.75-.2 1.17-.25a2.03 2.03 0 0 0-1.3-.15c0-.29-.14-.46-.21-.69.62-.22 1.99-1.53 2.95-1.48Zm-2.28.06c-.53.34-.99.78-1.5 1.15-1.13.06-1.75-.08-2.59-.73.02-.05.1-.03.1-.1 1.22.55 2.76-.21 3.99-.32ZM27.96 33c.63.44 1.85.33 2.79.5.04.3-.2.68-.2 1.1-.78-.05-3.24-.95-2.6-1.6Zm4.27.25a11.16 11.16 0 0 1 3.18 1.1c.48.26.75.58 1.48.64l-.01.29c-.4.26-1.04.26-1.48.48.65.02 1.15.18 1.59.4l-.03.72c-.73.5-1.4 1.24-2.25 1.7-.4.23-1.82.8-2.25.7-.24-.06-.27-.36-.36-.65-.21-.6-.69-1.58-.73-2.5-.05-1.08-.16-2.86.86-2.88Zm5.82 1.51h.17c.93.15.86 2.07-.61 1.61-.11-.63-.24-.8-.2-1.36.25-.16.46-.23.64-.25Zm.84 2.2c.54.05.96.79 1.72.74-.12 1.98-.06 3.97-.61 5.79-1.03-1.9-1.64-4.17-2.98-5.78.15-.15.27-.32.41-.47.6.25 1-.33 1.46-.28Zm3.07.63c.73 0 1.34.47 1.67 1-1.04 1.77-2.03 3.6-3.26 5.16.52-1.52.74-4.05.82-5.98.24-.11.5-.18.77-.18Zm-5.59.67c1.23 1.56 1.97 3.56 2.8 5.49a28.59 28.59 0 0 1-5.62-2.5c.33-1.44 1.64-2.2 2.82-2.99Zm12.91 5.13c.54.02 1.07.45 1.3.8.42.63.8 2.5 1.03 3.48.32 1.47-.41 2.9-1.58 3.18-.85.2-2.16.26-2.71 0 .68-.38 1.7-.38 2.5-.64-1.14-.48-2.81-.02-4.17-.1-.16-1.69-.29-3.5-.69-4.83.8-.84 2.71-1.05 3.8-1.74a.9.9 0 0 1 .52-.15Zm-.09 1.57c-1.4.04-2.48.4-3.1 1.28 1.13.08 1.94-1.05 3.1-1.28Zm-5.48.34c.1 0 .2.02.28.04.74 1.27.9 3.39.88 4.93-.46.09-.76.35-1.32.33-.14-1.75-.55-3.59-.72-5.26.27 0 .58-.05.88-.04Zm-8.58.02a19.1 19.1 0 0 1 4.1.32c.3 1.95.2 3.87.41 5.78.3 2.54.07 5.44.57 7.82-2.7.84-6.38.76-9.44-.17a61.77 61.77 0 0 1-2.64-12.99c2-.37 4.56-.72 7-.76Zm6.48.17c.49 1.74.46 3.96.7 5.94-.73.16-1.27.23-2.05.35a67.85 67.85 0 0 1-.25-6.11c.56-.19 1.05-.18 1.6-.18Zm6.34 1c-.55.01-1.05.13-1.26.46.96.07 2.07-.08 3.01-.18a5.65 5.65 0 0 0-1.75-.28Zm-.16 1.42c-.49 0-.92.1-1.15.34 1.01.09 2.33.1 3.39.08a6.13 6.13 0 0 0-2.24-.42Zm-6.43 4.7c.1-.02.2-.02.27 0 .15 1.33.68 2.68.61 4.14-.58.2-.92.37-1.7.37-.06-1.24-.23-3.13-.18-4.32.3.02.69-.14 1-.2Z" fill="#231F20"/><path d="M41.96 37.59c-.27 0-.53.06-.77.18-.08 1.93-.3 4.46-.82 5.98 1.23-1.57 2.22-3.39 3.26-5.16a2.01 2.01 0 0 0-1.67-1Zm-5.59.67c-1.18.8-2.5 1.55-2.82 3a28.6 28.6 0 0 0 5.61 2.49c-.82-1.93-1.56-3.93-2.79-5.49Z" fill="#81B0C4"/><path d="M39.92 32.98c-.53.34-.99.78-1.5 1.15-1.13.06-1.75-.08-2.59-.73.02-.05.1-.03.1-.1 1.22.55 2.76-.21 3.99-.32Z" fill="#F0D6B7"/><path d="M39.62 38.57a.41.41 0 1 1-.82 0 .41.41 0 0 1 .82 0Zm.41 1.9a.41.41 0 1 1-.82 0 .41.41 0 0 1 .82 0Z" fill="#1D1919"/></g><defs><clipPath id="a"><path fill="#fff" transform="translate(5 5)" d="M0 0h56v56H0z"/></clipPath></defs></svg>