<svg width="66" height="66" fill="none" xmlns="http://www.w3.org/2000/svg"><g clip-path="url(#a)"><path d="M33.57 4.98c-6.81-.13-13.31 1.66-18.87 6.8a28.02 28.02 0 0 0-.75 40.36c2.03 2.01 4.44 3.87 7.08 5 .69-2.32.56-5.12.34-7.88-.06-.05-.11-.1-.15-.17-.74-1.1-.19-3.97-.19-5.28 4.65.82 8.43 3.38 13.4 1.9 4.88-1.46 6.9-8.48 2.61-11.8-2.59-2.01-6.44-1.74-9.5-1.37-1.83.22-4.12.9-5.39-1.05-.75-1.15.03-3.97.15-5.27l.1-1c.33-4.03.87-8.11.87-12.15H43V6.22a46.6 46.6 0 0 0-9.43-1.24Z" fill="#DC514A"/><path d="M42.84 6.2v12.06H28.48l-.75 9.28c3.2-.25 6.15-.82 9.33-.07 2.18.52 4.23 1.55 5.75 3.22 4.23 4.66 3.4 13.42-1.46 17.35a12.67 12.67 0 0 1-4.58 2.3c-1.52.49-3.05.7-4.59.71a26.33 26.33 0 0 1-8.74-.9c-.58-.17-1.49-.4-2.06-.83l-.36-.08-.19 7.8c14.8 7.84 33.66-.56 38.97-15.96C64.3 28.06 57.34 9.62 42.84 6.2Z" fill="#23A161"/></g><defs><clipPath id="a"><path fill="#fff" transform="translate(5 4)" d="M0 0h57v57H0z"/></clipPath></defs></svg>