<svg width="66" height="66" fill="none" xmlns="http://www.w3.org/2000/svg"><path d="M42.73 35.67a7.4 7.4 0 0 0-4.89 1.84l-3.55-2.06c.25-.8.36-1.65.36-2.53 0-.88-.11-1.74-.28-2.53l3.39-2.01a7.3 7.3 0 0 0 4.97 1.87 7.38 7.38 0 1 0 0-14.77 7.43 7.43 0 0 0-7.28 8.94L32 26.4a9.65 9.65 0 0 0-4.51-2.61v-3.82a7.44 7.44 0 0 0 5.17-7.07 7.4 7.4 0 0 0-14.8 0 7.4 7.4 0 0 0 5.06 7.06v3.86a9.4 9.4 0 0 0-7.09 9.1c0 4.4 3.02 8.08 7.1 9.1v3.99a7.4 7.4 0 0 0-5.07 7.07c0 4.1 3.28 7.42 7.37 7.42A7.43 7.43 0 0 0 27.5 46v-3.95a9.51 9.51 0 0 0 4.51-2.59l3.46 2.01a7.43 7.43 0 1 0 14.68 1.6 7.4 7.4 0 0 0-7.42-7.4Zm0-16.42a3.63 3.63 0 0 1 3.66 3.63 3.66 3.66 0 1 1-3.66-3.63ZM21.6 12.9a3.64 3.64 0 1 1 7.29 0 3.64 3.64 0 1 1-7.3 0Zm7.28 40.18a3.64 3.64 0 1 1-7.28 0 3.64 3.64 0 1 1 7.29 0ZM25.24 38.2a5.28 5.28 0 1 1 0-10.57 5.28 5.28 0 0 1 0 10.57Zm17.5 8.55a3.66 3.66 0 0 1-3.66-3.69 3.66 3.66 0 1 1 7.31 0c0 2.01-1.62 3.69-3.66 3.69Z" fill="#595959"/></svg>