<svg xmlns="http://www.w3.org/2000/svg" width="60" height="60" viewBox="0 0 48 48"><path fill="#21a366" d="M24 45.42a3.3 3.3 0 0 1-1.64-.44l-5.24-3.1c-.78-.44-.4-.6-.14-.69 1.04-.36 1.25-.44 2.37-1.08.11-.06.27-.04.39.03l4.02 2.39c.15.08.36.08.49 0l15.7-9.06a.5.5 0 0 0 .24-.43v-18.1a.5.5 0 0 0-.25-.44L24.25 5.45a.48.48 0 0 0-.48 0L8.08 14.5a.5.5 0 0 0-.25.43v18.11c0 .17.1.34.25.42l4.3 2.48c2.33 1.17 3.76-.2 3.76-1.59V16.48c0-.26.2-.46.45-.46h1.99c.25 0 .45.2.45.46v17.88c0 3.11-1.7 4.9-4.65 4.9-.9 0-1.62 0-3.61-.98l-4.12-2.37A3.32 3.32 0 0 1 5 33.04V14.93a3.3 3.3 0 0 1 1.65-2.86L22.36 3c1-.56 2.31-.56 3.3 0l15.7 9.07A3.31 3.31 0 0 1 43 14.93v18.12c0 1.17-.63 2.27-1.65 2.86l-15.69 9.06c-.5.3-1.07.44-1.65.44"/><path fill="#21a366" d="M28.86 32.94c-6.87 0-8.31-3.16-8.31-5.8 0-.25.2-.45.45-.45h2.03c.22 0 .41.16.45.38.3 2.07 1.22 3.11 5.37 3.11 3.3 0 4.71-.75 4.71-2.5 0-1.01-.4-1.76-5.54-2.27-4.3-.42-6.95-1.37-6.95-4.8 0-3.17 2.67-5.06 7.15-5.06 5.02 0 7.51 1.75 7.83 5.5a.46.46 0 0 1-.46.5h-2.04a.45.45 0 0 1-.44-.36c-.49-2.18-1.67-2.87-4.9-2.87-3.61 0-4.03 1.26-4.03 2.2 0 1.14.5 1.48 5.37 2.12 4.82.64 7.11 1.55 7.11 4.94 0 3.41-2.85 5.38-7.83 5.38"/></svg>